<?xml version="1.0" encoding="UTF-8" standalone="no"?>
<!DOCTYPE svg PUBLIC "-//W3C//DTD SVG 1.1//EN"
 "http://www.w3.org/Graphics/SVG/1.1/DTD/svg11.dtd">
<!-- Generated by graphviz version 11.0.0 (20240428.1522)
 -->
<!-- Pages: 1 -->
<svg width="160pt" height="91pt"
 viewBox="0.00 0.00 159.50 91.49" xmlns="http://www.w3.org/2000/svg" xmlns:xlink="http://www.w3.org/1999/xlink">
<g id="graph0" class="graph" transform="scale(1 1) rotate(0) translate(4 87.49)">
<polygon fill="white" stroke="none" points="-4,4 -4,-87.49 155.5,-87.49 155.5,4 -4,4"/>
<!-- &#45;1 -->
<g id="node1" class="node">
<title>&#45;1</title>
<polygon fill="lightgray" stroke="black" points="23.5,-83.49 0,-83.49 0,-64.99 23.5,-64.99 23.5,-83.49"/>
<text text-anchor="middle" x="11.75" y="-70.94" font-family="Times,serif" font-size="9.00">&#45;1</text>
</g>
<!-- 1 -->
<g id="node6" class="node">
<title>1</title>
<ellipse fill="lightblue" stroke="black" cx="42.75" cy="-14.5" rx="14.5" ry="14.5"/>
<text text-anchor="middle" x="42.75" y="-11.2" font-family="Times,serif" font-size="9.00">1</text>
</g>
<!-- &#45;1&#45;&gt;1 -->
<g id="edge1" class="edge">
<title>&#45;1&#45;&gt;1</title>
<path fill="none" stroke="green" stroke-width="0.22" d="M16.32,-64.72C20.27,-57.38 26.12,-46.47 31.32,-36.78"/>
<polygon fill="green" stroke="green" stroke-width="0.22" points="34.41,-38.44 36.05,-27.97 28.24,-35.13 34.41,-38.44"/>
</g>
<!-- &#45;2 -->
<g id="node2" class="node">
<title>&#45;2</title>
<polygon fill="lightgray" stroke="black" points="109.5,-83.49 86,-83.49 86,-64.99 109.5,-64.99 109.5,-83.49"/>
<text text-anchor="middle" x="97.75" y="-70.94" font-family="Times,serif" font-size="9.00">&#45;2</text>
</g>
<!-- 0 -->
<g id="node5" class="node">
<title>0</title>
<ellipse fill="lightblue" stroke="black" cx="108.75" cy="-14.5" rx="14.5" ry="14.5"/>
<text text-anchor="middle" x="108.75" y="-11.2" font-family="Times,serif" font-size="9.00">0</text>
</g>
<!-- &#45;2&#45;&gt;0 -->
<g id="edge2" class="edge">
<title>&#45;2&#45;&gt;0</title>
<path fill="none" stroke="red" stroke-width="0.34" d="M99.37,-64.72C100.66,-57.96 102.53,-48.16 104.26,-39.08"/>
<polygon fill="red" stroke="red" stroke-width="0.34" points="107.65,-39.97 106.08,-29.5 100.77,-38.66 107.65,-39.97"/>
</g>
<!-- &#45;3 -->
<g id="node3" class="node">
<title>&#45;3</title>
<polygon fill="lightgray" stroke="black" points="151.5,-83.49 128,-83.49 128,-64.99 151.5,-64.99 151.5,-83.49"/>
<text text-anchor="middle" x="139.75" y="-70.94" font-family="Times,serif" font-size="9.00">&#45;3</text>
</g>
<!-- &#45;3&#45;&gt;0 -->
<g id="edge3" class="edge">
<title>&#45;3&#45;&gt;0</title>
<path fill="none" stroke="red" stroke-width="0.49" d="M135.18,-64.72C131.28,-57.46 125.5,-46.69 120.34,-37.08"/>
<polygon fill="red" stroke="red" stroke-width="0.49" points="123.45,-35.48 115.64,-28.33 117.28,-38.79 123.45,-35.48"/>
</g>
<!-- &#45;4 -->
<g id="node4" class="node">
<title>&#45;4</title>
<polygon fill="lightgray" stroke="black" points="65.5,-83.49 42,-83.49 42,-64.99 65.5,-64.99 65.5,-83.49"/>
<text text-anchor="middle" x="53.75" y="-70.94" font-family="Times,serif" font-size="9.00">&#45;4</text>
</g>
<!-- &#45;4&#45;&gt;1 -->
<g id="edge4" class="edge">
<title>&#45;4&#45;&gt;1</title>
<path fill="none" stroke="green" stroke-width="0.46" d="M52.13,-64.72C50.85,-58.03 49.01,-48.37 47.3,-39.38"/>
<polygon fill="green" stroke="green" stroke-width="0.46" points="50.76,-38.83 45.45,-29.67 43.88,-40.14 50.76,-38.83"/>
</g>
</g>
</svg>
